<svg xmlns="http://www.w3.org/2000/svg" viewBox="0 0 100 100">
  <rect width="100" height="100" rx="20" fill="#2a5491"/>
  <g fill="white">
    <!-- Table icon -->
    <rect x="20" y="25" width="60" height="8" rx="2"/>
    <rect x="20" y="38" width="18" height="8" rx="2"/>
    <rect x="41" y="38" width="18" height="8" rx="2"/>
    <rect x="62" y="38" width="18" height="8" rx="2"/>
    <rect x="20" y="49" width="18" height="8" rx="2"/>
    <rect x="41" y="49" width="18" height="8" rx="2"/>
    <rect x="62" y="49" width="18" height="8" rx="2"/>
    <rect x="20" y="60" width="18" height="8" rx="2"/>
    <rect x="41" y="60" width="18" height="8" rx="2"/>
    <rect x="62" y="60" width="18" height="8" rx="2"/>
    <!-- Sync arrows -->
    <path d="M 70 72 Q 75 67 80 72 L 80 75 L 85 70 L 80 65 L 80 68 Q 70 58 60 68" stroke="white" stroke-width="2" fill="none"/>
    <path d="M 50 78 Q 45 83 40 78 L 40 75 L 35 80 L 40 85 L 40 82 Q 50 92 60 82" stroke="white" stroke-width="2" fill="none"/>
  </g>
</svg>